<svg width="1272" height="656" viewBox="0 0 1272 656" fill="none" xmlns="http://www.w3.org/2000/svg">
<path d="M975.315 354.089C968.124 343.921 961.045 333.672 953.721 323.6C918.3 274.887 882.813 226.222 847.355 177.535C846.999 177.046 846.715 176.505 846.062 175.443C848.161 175.336 849.734 175.187 851.308 175.186C873.637 175.171 895.978 174.716 918.292 175.287C949.533 176.086 975.91 188.544 994.663 213.436C1028.7 258.618 1061.51 304.727 1094.88 350.414C1096.53 352.669 1097.11 354.391 1095.22 356.969C1076.12 383 1057.15 409.123 1038.12 435.204C1037.75 435.709 1037.12 436.019 1036.15 436.179C1021.91 417.084 1008.17 398.203 994.334 379.387C988.086 370.887 981.66 362.518 975.315 354.089Z" fill="#FEFEFE"/>
<path d="M975.006 354.282C981.66 362.518 988.086 370.887 994.334 379.387C1008.17 398.203 1021.91 417.084 1035.81 436.285C1024.52 452.58 1013.42 468.759 1001.6 484.403C992.711 496.179 983.901 508.308 973.286 518.424C956.869 534.071 936.23 542.1 913.584 542.849C888.811 543.667 863.99 543.035 838 543.035C883.852 479.787 929.275 417.131 975.006 354.282Z" fill="#DBB0F8"/>
<path d="M212.219 441.208C201.673 426.904 191.098 412.621 180.589 398.29C171.935 386.489 163.43 374.579 154.696 362.839C152.631 360.062 152.316 358.042 154.508 355.047C188.019 309.267 220.987 263.081 255.017 217.692C270.573 196.943 292.37 184.982 318.25 181.245C324.149 180.393 330.173 180.112 336.142 180.077C358.257 179.944 380.374 180.024 403.685 180.024C359.975 240.005 316.848 299.186 273.358 358.886C257.493 380.754 242.055 402.15 226.447 423.421C221.959 429.537 216.975 435.289 212.219 441.208Z" fill="#FEFEFE"/>
<path d="M212.333 441.533C216.975 435.289 221.959 429.537 226.447 423.421C242.055 402.15 257.493 380.754 273.268 359.211C296.838 391.067 320.155 423.104 343.425 455.174C365.7 485.872 387.926 516.605 410.667 548.003C408.681 548.003 407.286 548.003 405.892 548.003C384.56 548.002 363.227 548.141 341.897 547.968C307.235 547.686 279.46 533.51 258.849 505.7C243.184 484.565 227.9 463.148 212.333 441.533Z" fill="#DBB0F8"/>
<path d="M876.866 348.925C881.134 362.888 880.558 375.99 872.149 387.928C860.959 403.815 837.609 407.231 821.74 395.115C821.565 397.063 821.414 398.743 821.229 400.807C813.151 400.807 804.975 400.807 796.58 400.807C796.58 367.367 796.58 333.998 796.58 300.431C805.345 300.431 813.912 300.431 822.866 300.431C822.866 311.069 822.866 321.455 822.866 332.067C846.261 317.853 870.816 330.868 876.866 348.925ZM825.934 352.207C821.691 358.088 821.418 364.578 823.425 371.203C825.091 376.703 828.927 380.29 834.691 381.175C842.546 382.382 848.869 378.746 851.477 371.902C854.645 363.585 852.195 353.565 845.963 349.35C840.121 345.399 832.53 346.285 825.934 352.207Z" fill="white"/>
<path d="M403.668 376.203C412.059 380.854 420.412 380.963 429.067 378.332C431.56 377.575 432.481 376.442 432.421 373.812C432.253 366.512 432.363 359.205 432.363 351.592C440.589 351.592 448.475 351.592 456.774 351.592C456.774 364.031 456.809 376.331 456.704 388.631C456.696 389.573 455.936 390.857 455.132 391.393C434.759 404.969 397.556 408.506 376.685 386.687C351.716 360.584 363.872 317.013 399.441 307.482C420.364 301.875 440.398 304.252 457.017 320.139C457.604 320.7 458.09 321.366 458.987 322.404C453.215 327.529 447.569 332.543 441.686 337.768C433.982 330.232 425.22 326.16 414.53 327.524C407.136 328.467 400.806 331.444 396.329 337.615C387.632 349.603 390.883 367.284 403.668 376.203Z" fill="#9C24EB"/>
<path d="M635.623 345.18C635.623 363.975 635.623 382.27 635.623 400.874C627.175 400.874 618.932 400.874 610.341 400.874C610.341 398.941 610.341 397.038 610.341 394.384C603.244 400.102 595.795 402.432 587.306 402.258C570.691 401.917 558.748 391.918 557.816 375.285C556.932 359.526 557.626 343.679 557.626 327.522C565.886 327.522 574.444 327.522 583.623 327.522C583.623 336.346 583.566 345.257 583.645 354.167C583.691 359.318 583.615 364.507 584.21 369.607C584.97 376.11 588.455 379.378 594.345 380.1C599.898 380.782 605.903 377.324 607.578 371.632C608.73 367.716 609.065 363.462 609.147 359.347C609.355 348.863 609.216 338.373 609.216 327.53C617.884 327.53 626.438 327.53 635.623 327.53C635.623 333.185 635.623 338.932 635.623 345.18Z" fill="white"/>
<path d="M708.445 370.374C713.983 360.065 723.514 357.961 733.532 357.291C740.152 356.848 746.827 357.207 753.483 357.207C753.314 351.478 750.937 348.508 745.549 347.155C735.934 344.739 727.229 347.475 718.487 352.253C715.606 346.594 712.769 341.022 709.741 335.072C717.641 329.408 726.589 326.932 735.814 326.445C743.181 326.056 750.854 326.487 758.011 328.169C771.621 331.368 779.412 340.497 780.042 354.311C780.746 369.727 780.204 385.2 780.204 400.916C772.178 400.916 764.274 400.916 756.007 400.916C755.881 398.787 755.757 396.692 755.594 393.941C746.588 403.49 735.629 403.597 724.492 401.058C709.941 397.741 703.38 384.975 708.445 370.374ZM746.068 370.177C743.279 370.48 740.444 370.564 737.714 371.142C734.236 371.879 731.706 374.337 732.483 377.826C733.079 380.5 734.952 383.658 737.21 385.027C741.408 387.57 745.953 386.073 749.751 383.281C754.183 380.023 754.665 375.425 753.555 370.177C751.274 370.177 749.133 370.177 746.068 370.177Z" fill="white"/>
<path d="M491.507 327.164C501.57 325.472 511.161 325.446 520.571 328.308C532.903 332.057 540.723 341.289 541.196 354.237C541.76 369.675 541.329 385.15 541.329 400.897C533.433 400.897 525.508 400.897 517.237 400.897C517.068 398.884 516.893 396.794 516.666 394.089C507.414 403.626 496.307 403.578 485.01 400.937C474.228 398.416 467.767 389.841 467.718 379.306C467.671 369.126 473.527 361.739 484.838 358.996C490.255 357.683 495.993 357.574 501.604 357.226C505.912 356.959 510.25 357.173 514.573 357.173C514.546 351.57 512.18 348.526 506.789 347.172C497.163 344.753 488.43 347.422 479.679 352.273C476.797 346.635 473.943 341.053 470.889 335.077C477.042 330.61 483.925 328.584 491.507 327.164ZM493.782 375.391C491.439 382.61 497.936 386.661 503.477 386.096C511.741 385.255 517.18 379.168 514.724 370.327C510.562 370.327 506.213 369.797 502.079 370.511C499.279 370.995 496.781 373.227 493.782 375.391Z" fill="white"/>
<path d="M651.587 341.187C651.587 336.385 651.587 332.081 651.587 327.475C659.913 327.475 667.982 327.475 676.568 327.475C676.568 329.605 676.568 331.793 676.568 334.946C684.057 328.424 691.922 325.701 701.146 326.255C701.146 334.196 701.146 341.95 701.146 350.052C698.718 349.77 696.316 349.151 693.953 349.275C683.909 349.798 678.218 355.784 678.067 366.055C677.92 376.043 678.035 386.034 678.035 396.024C678.035 397.648 678.035 399.272 678.035 401.039C669.066 401.039 660.617 401.039 651.587 401.039C651.587 381.177 651.587 361.431 651.587 341.187Z" fill="white"/>
</svg>
