<svg width="166" height="163" viewBox="0 0 166 163" fill="none" xmlns="http://www.w3.org/2000/svg">
<rect x="3.5" y="2.5" width="158" height="158" rx="14.5" fill="#8012C9" stroke="white"/>
<path d="M55.3565 54.4708C50.7263 55.3968 47.4693 57.0892 44.0206 60.3144C39.6139 64.4656 37.8577 67.8823 36.3249 75.3545C35.2392 80.8468 35.1754 82.5392 36.0375 87.4887C37.2829 94.5457 39.103 98.5373 42.7752 102.241C47.4373 106.935 55.0691 109.298 62.4774 108.34C69.8537 107.382 75.5696 103.551 78.6032 97.5474C80.3914 93.939 81.3813 90.4903 80.7107 90.0752C80.0401 89.6601 78.7309 89.724 77.9645 90.2668C77.5813 90.5223 76.9108 91.7996 76.4318 93.0449C74.0688 99.3036 70.5882 102.561 64.4572 104.317C61.6472 105.147 56.091 105.147 53.4406 104.349C47.4693 102.561 42.9987 98.0264 40.987 91.6399C40.2206 89.2769 39.3904 82.9863 39.7417 82.4115C39.8375 82.2518 48.7146 82.1241 60.8169 82.1241H81.7006V79.6334C81.7006 74.4604 80.551 69.447 78.4435 65.4236C77.0704 62.7732 72.6318 58.3346 69.8857 56.8019C65.6068 54.4708 59.9867 53.5767 55.3565 54.4708ZM63.2438 58.2069C71.163 59.8673 76.5914 66.8924 77.6452 76.9192L77.8368 78.6116H58.8052H39.7736L39.9971 76.4082C40.8274 67.4672 46.7029 60.3144 54.8456 58.3346C57.0809 57.7918 61.0085 57.7279 63.2438 58.2069Z" fill="black"/>
<path d="M85.9475 55.5247C85.3408 55.6525 86.4265 57.1852 94.3776 67.5313C99.3909 74.0774 103.606 79.5697 103.766 79.7613C103.957 79.9848 100.445 84.9343 93.9625 93.6518L83.9038 107.191L85.692 107.287C87.0012 107.351 87.7676 107.223 88.502 106.808C89.1726 106.425 92.6213 102.05 98.1136 94.6417C106.64 83.1142 106.671 83.0822 107.246 83.7847C107.534 84.1999 111.078 89.0536 115.07 94.5778C122.797 105.275 123.532 106.201 124.873 106.904C125.99 107.478 129.407 107.51 129.184 106.968C129.12 106.744 124.873 101.028 119.796 94.2585C114.718 87.4889 110.376 81.6453 110.184 81.2621C109.96 80.8789 109.801 80.2722 109.801 79.9529C109.801 79.6016 111.557 77.0471 113.697 74.237C115.836 71.4589 119.859 66.1901 122.67 62.486L127.747 55.8121L126.821 55.5567C125.48 55.1735 123.627 55.5886 122.542 56.4827C122.031 56.9298 118.263 61.7196 114.207 67.1481C110.152 72.5765 106.703 76.9193 106.576 76.8235C106.448 76.7597 103.287 72.5446 99.5506 67.4993C95.8145 62.454 92.3978 57.9197 91.9507 57.4087C90.4499 55.7483 88.2785 55.0777 85.9475 55.5247Z" fill="black"/>
</svg>
