<svg width="166" height="163" viewBox="0 0 166 163" fill="none" xmlns="http://www.w3.org/2000/svg">
<rect x="2.5" y="2.5" width="158" height="158" rx="14.5" fill="#8012C9" stroke="white"/>
<path d="M92.1563 35.8443C87.2881 30.1059 83.0958 24.2775 82.2394 23.0672C82.219 23.046 82.1946 23.0291 82.1674 23.0175C82.1403 23.006 82.1111 23 82.0816 23C82.052 23 82.0228 23.006 81.9957 23.0175C81.9686 23.0291 81.9441 23.046 81.9237 23.0672C81.0673 24.2777 76.875 30.1059 72.0066 35.8443C30.2202 88.7906 78.5881 124.522 78.5881 124.522L78.9937 124.791C79.3542 130.305 80.2559 138.241 80.2559 138.241H83.8621C83.8621 138.241 84.7634 130.35 85.1241 124.791L85.5299 124.477C85.575 124.522 133.943 88.7908 92.1563 35.8443V35.8443ZM82.0589 123.715C82.0589 123.715 79.8952 121.877 79.3092 120.936V120.846L81.9237 63.1919C81.9237 63.0126 82.1943 63.0126 82.1943 63.1919L84.8087 120.846V120.936C84.2226 121.877 82.0589 123.715 82.0589 123.715V123.715Z" fill="#01EC64"/>
</svg>
