<svg width="54" height="54" viewBox="0 0 54 54" fill="none" xmlns="http://www.w3.org/2000/svg">
<g filter="url(#filter0_d_101_15)">
<path d="M40.1111 10C41.1425 10 42.1317 10.4097 42.861 11.139C43.5903 11.8683 44 12.8575 44 13.8889V41.1111C44 42.1425 43.5903 43.1317 42.861 43.861C42.1317 44.5903 41.1425 45 40.1111 45H12.8889C11.8575 45 10.8683 44.5903 10.139 43.861C9.40972 43.1317 9 42.1425 9 41.1111V13.8889C9 12.8575 9.40972 11.8683 10.139 11.139C10.8683 10.4097 11.8575 10 12.8889 10H40.1111ZM39.1389 40.1389V29.8333C39.1389 28.1522 38.471 26.5398 37.2823 25.3511C36.0935 24.1623 34.4812 23.4944 32.8 23.4944C31.1472 23.4944 29.2222 24.5056 28.2889 26.0222V23.8639H22.8639V40.1389H28.2889V30.5528C28.2889 29.0556 29.4944 27.8306 30.9917 27.8306C31.7136 27.8306 32.4061 28.1174 32.9166 28.6279C33.4271 29.1384 33.7139 29.8308 33.7139 30.5528V40.1389H39.1389ZM16.5444 20.8111C17.4108 20.8111 18.2417 20.4669 18.8543 19.8543C19.4669 19.2417 19.8111 18.4108 19.8111 17.5444C19.8111 15.7361 18.3528 14.2583 16.5444 14.2583C15.6729 14.2583 14.8371 14.6045 14.2208 15.2208C13.6045 15.8371 13.2583 16.6729 13.2583 17.5444C13.2583 19.3528 14.7361 20.8111 16.5444 20.8111ZM19.2472 40.1389V23.8639H13.8611V40.1389H19.2472Z" fill="white"/>
</g>
<defs>
<filter id="filter0_d_101_15" x="4" y="6" width="47" height="47" filterUnits="userSpaceOnUse" color-interpolation-filters="sRGB">
<feFlood flood-opacity="0" result="BackgroundImageFix"/>
<feColorMatrix in="SourceAlpha" type="matrix" values="0 0 0 0 0 0 0 0 0 0 0 0 0 0 0 0 0 0 127 0" result="hardAlpha"/>
<feOffset dx="1" dy="2"/>
<feGaussianBlur stdDeviation="3"/>
<feComposite in2="hardAlpha" operator="out"/>
<feColorMatrix type="matrix" values="0 0 0 0 0 0 0 0 0 0 0 0 0 0 0 0 0 0 0.33 0"/>
<feBlend mode="normal" in2="BackgroundImageFix" result="effect1_dropShadow_101_15"/>
<feBlend mode="normal" in="SourceGraphic" in2="effect1_dropShadow_101_15" result="shape"/>
</filter>
</defs>
</svg>
