<svg width="56" height="55" viewBox="0 0 56 55" fill="none" xmlns="http://www.w3.org/2000/svg">
<g filter="url(#filter0_d_101_18)">
<path d="M27.9345 10C25.5793 10 23.2472 10.4639 21.0712 11.3652C18.8953 12.2665 16.9183 13.5875 15.2529 15.2529C11.8895 18.6163 10 23.178 10 27.9345C10 35.8615 15.1472 42.5869 22.2672 44.9722C23.1639 45.1157 23.4509 44.5597 23.4509 44.0755V41.0446C18.483 42.1206 17.4249 38.6413 17.4249 38.6413C16.5999 36.561 15.4341 36.005 15.4341 36.005C13.8021 34.893 15.5597 34.9289 15.5597 34.9289C17.3531 35.0545 18.3037 36.7762 18.3037 36.7762C19.864 39.5022 22.5003 38.6952 23.5226 38.2647C23.684 37.099 24.1503 36.3099 24.6525 35.8615C20.671 35.4131 16.4923 33.8708 16.4923 27.0377C16.4923 25.047 17.1738 23.4509 18.3395 22.1775C18.1602 21.7291 17.5325 19.864 18.5189 17.4428C18.5189 17.4428 20.0254 16.9586 23.4509 19.2721C24.8677 18.8776 26.41 18.6803 27.9345 18.6803C29.4589 18.6803 31.0013 18.8776 32.4181 19.2721C35.8436 16.9586 37.3501 17.4428 37.3501 17.4428C38.3365 19.864 37.7088 21.7291 37.5294 22.1775C38.6952 23.4509 39.3767 25.047 39.3767 27.0377C39.3767 33.8887 35.18 35.3952 31.1806 35.8436C31.8263 36.3995 32.4181 37.4935 32.4181 39.1615V44.0755C32.4181 44.5597 32.705 45.1336 33.6197 44.9722C40.7397 42.569 45.8689 35.8615 45.8689 27.9345C45.8689 25.5793 45.4051 23.2472 44.5038 21.0712C43.6025 18.8953 42.2814 16.9183 40.6161 15.2529C38.9507 13.5875 36.9736 12.2665 34.7977 11.3652C32.6218 10.4639 30.2897 10 27.9345 10Z" fill="white"/>
</g>
<defs>
<filter id="filter0_d_101_18" x="5" y="10" width="45.8691" height="45" filterUnits="userSpaceOnUse" color-interpolation-filters="sRGB">
<feFlood flood-opacity="0" result="BackgroundImageFix"/>
<feColorMatrix in="SourceAlpha" type="matrix" values="0 0 0 0 0 0 0 0 0 0 0 0 0 0 0 0 0 0 127 0" result="hardAlpha"/>
<feOffset dy="5"/>
<feGaussianBlur stdDeviation="2.5"/>
<feComposite in2="hardAlpha" operator="out"/>
<feColorMatrix type="matrix" values="0 0 0 0 0 0 0 0 0 0 0 0 0 0 0 0 0 0 0.25 0"/>
<feBlend mode="normal" in2="BackgroundImageFix" result="effect1_dropShadow_101_18"/>
<feBlend mode="normal" in="SourceGraphic" in2="effect1_dropShadow_101_18" result="shape"/>
</filter>
</defs>
</svg>
