<svg width="56" height="54" viewBox="0 0 56 54" fill="none" xmlns="http://www.w3.org/2000/svg">
<g filter="url(#filter0_d_97_2)">
<path d="M40.608 14.0926C38.9034 12.472 36.8731 11.187 34.6353 10.3127C32.3976 9.43836 29.9972 8.99216 27.5744 9.0001C17.4226 9.0001 9.14874 16.7876 9.14874 26.3426C9.14874 29.405 10.004 32.38 11.603 35.005L9 44L18.7613 41.585C21.4573 42.9675 24.4879 43.7025 27.5744 43.7025C37.7261 43.7025 46 35.915 46 26.3601C46 21.7226 44.0849 17.3651 40.608 14.0926ZM27.5744 40.7625C24.8226 40.7625 22.1266 40.0625 19.7653 38.75L19.2075 38.435L13.4065 39.87L14.9497 34.55L14.5779 34.0075C13.0491 31.7097 12.2373 29.0537 12.2352 26.3426C12.2352 18.3976 19.1146 11.9226 27.5558 11.9226C31.6462 11.9226 35.495 13.4276 38.3769 16.1576C39.8039 17.4945 40.9347 19.0847 41.7039 20.8361C42.4731 22.5874 42.8653 24.465 42.8578 26.3601C42.895 34.305 36.0156 40.7625 27.5744 40.7625ZM35.9784 29.9825C35.5136 29.7725 33.2452 28.7225 32.8362 28.565C32.4085 28.425 32.1111 28.355 31.795 28.775C31.4789 29.2125 30.605 30.1925 30.3447 30.4725C30.0844 30.77 29.8055 30.805 29.3407 30.5775C28.8759 30.3675 27.3884 29.895 25.6407 28.425C24.2648 27.27 23.3538 25.8526 23.0749 25.4151C22.8146 24.9776 23.0377 24.7501 23.2794 24.5226C23.4839 24.3301 23.7442 24.0151 23.9673 23.7701C24.1905 23.5251 24.2834 23.3326 24.4322 23.0526C24.5809 22.7551 24.5065 22.5101 24.395 22.3001C24.2834 22.0901 23.3538 19.9551 22.9819 19.0801C22.61 18.2401 22.2196 18.3451 21.9407 18.3276H21.0482C20.7322 18.3276 20.2487 18.4326 19.8211 18.8701C19.4121 19.3076 18.2221 20.3576 18.2221 22.4926C18.2221 24.6276 19.8769 26.6926 20.1 26.9725C20.3231 27.27 23.3538 31.645 27.9648 33.5175C29.0618 33.9725 29.9171 34.235 30.5864 34.4275C31.6834 34.76 32.6874 34.7075 33.4869 34.6025C34.3794 34.48 36.2201 33.5525 36.592 32.5375C36.9824 31.5225 36.9824 30.665 36.8523 30.4725C36.7221 30.28 36.4432 30.1925 35.9784 29.9825Z" fill="white"/>
</g>
<defs>
<filter id="filter0_d_97_2" x="4" y="4" width="47" height="45" filterUnits="userSpaceOnUse" color-interpolation-filters="sRGB">
<feFlood flood-opacity="0" result="BackgroundImageFix"/>
<feColorMatrix in="SourceAlpha" type="matrix" values="0 0 0 0 0 0 0 0 0 0 0 0 0 0 0 0 0 0 127 0" result="hardAlpha"/>
<feOffset/>
<feGaussianBlur stdDeviation="2.5"/>
<feComposite in2="hardAlpha" operator="out"/>
<feColorMatrix type="matrix" values="0 0 0 0 0 0 0 0 0 0 0 0 0 0 0 0 0 0 0.81 0"/>
<feBlend mode="normal" in2="BackgroundImageFix" result="effect1_dropShadow_97_2"/>
<feBlend mode="normal" in="SourceGraphic" in2="effect1_dropShadow_97_2" result="shape"/>
</filter>
</defs>
</svg>
