<svg width="166" height="163" viewBox="0 0 166 163" fill="none" xmlns="http://www.w3.org/2000/svg">
<rect x="3.5" y="2.5" width="158" height="158" rx="14.5" fill="#8012C9" stroke="white"/>
<g filter="url(#filter0_d_26_198)">
<path d="M63.4672 137.616C73.7565 137.616 82.1072 129.265 82.1072 118.976V100.336H63.4672C53.1779 100.336 44.8271 108.687 44.8271 118.976C44.8271 129.265 53.1779 137.616 63.4672 137.616Z" fill="#0ACF83"/>
<path d="M44.8271 81.6947C44.8271 71.4054 53.1779 63.0547 63.4672 63.0547H82.1072V100.335H63.4672C53.1779 100.335 44.8271 91.984 44.8271 81.6947Z" fill="#A259FF"/>
<path d="M44.8291 44.4154C44.8291 34.1261 53.1798 25.7754 63.4691 25.7754H82.1091V63.0554H63.4691C53.1798 63.0554 44.8291 54.7047 44.8291 44.4154Z" fill="#F24E1E"/>
<path d="M82.1074 25.7754H100.747C111.037 25.7754 119.387 34.1261 119.387 44.4154C119.387 54.7047 111.037 63.0554 100.747 63.0554H82.1074V25.7754Z" fill="#FF7262"/>
<path d="M119.387 81.6947C119.387 91.984 111.037 100.335 100.747 100.335C90.4581 100.335 82.1074 91.984 82.1074 81.6947C82.1074 71.4054 90.4581 63.0547 100.747 63.0547C111.037 63.0547 119.387 71.4054 119.387 81.6947Z" fill="#1ABCFE"/>
</g>
<defs>
<filter id="filter0_d_26_198" x="-1.18018" y="-20.2246" width="166.575" height="203.841" filterUnits="userSpaceOnUse" color-interpolation-filters="sRGB">
<feFlood flood-opacity="0" result="BackgroundImageFix"/>
<feColorMatrix in="SourceAlpha" type="matrix" values="0 0 0 0 0 0 0 0 0 0 0 0 0 0 0 0 0 0 127 0" result="hardAlpha"/>
<feOffset/>
<feGaussianBlur stdDeviation="23"/>
<feComposite in2="hardAlpha" operator="out"/>
<feColorMatrix type="matrix" values="0 0 0 0 0 0 0 0 0 0 0 0 0 0 0 0 0 0 1 0"/>
<feBlend mode="normal" in2="BackgroundImageFix" result="effect1_dropShadow_26_198"/>
<feBlend mode="normal" in="SourceGraphic" in2="effect1_dropShadow_26_198" result="shape"/>
</filter>
</defs>
</svg>
